# xmcd
#
# Track frame offsets: 
#        182
#        3965
#        15362
#        34137
#        45480
#        70355
#        92102
#        104177
#        125175
#        139160
#        154267
#
# Disc length: 2293 seconds
#
# Revision: 2
# Processed by: cddbd v1.4PL0 Copyright (c) Steve Scherf et al.
# Submitted via: ExactAudioCopy v0.90b3
#
DISCID=9508f30b
DTITLE=Fairfield Four - Standing in the Safety Zone
DYEAR=1992
DGENRE=Gospel
TTITLE0=Tree of Level
TTITLE1=My God Called Me This Morning
TTITLE2=Children, Go Where I Send Thee
TTITLE3=Born Again
TTITLE4=Keep Me Near the Cross (Servant's Prayer)
TTITLE5=Roll, Jordan, Roll
TTITLE6=Standing in the Safety Zone
TTITLE7=Swing Low, Sweet Chariot
TTITLE8=Last Month of the Year
TTITLE9=How I Got Over
TTITLE10=Dig a Little Deeper
EXTD=Isaac Freeman: Bass and Musical Director\nJames Hill: Baritone an
EXTD=d Group Manager\nW.L. Richardson: Lead and Chaplain\nWalter Settl
EXTD=es: Utility Lead\nWilson Waters: Tenor and Treasurer\n
EXTT0=Isaac Freeman: Lead Vocal, Bass\nSamuel H. McCrary: Tenor\nJames
EXTT0=Hill: Baritone\nEdward Thomas: Second Tenor\n
EXTT1=Walter Settles: Lead Vocal\n
EXTT2=W.L. Richardson: Lead Vocal\n
EXTT3=Walter Settles: Lead Vocal\n
EXTT4=Walter Settles: Lead Vocal\n
EXTT5=Alan O'Bryant, Isaac Freeman: Lead Vocals\n
EXTT6=Walter Settles: Lead Vocal\n
EXTT7=W.L. Richardson: Lead Vocal\n
EXTT8=Alan O'Bryant, W.L. Richardson, Walter Settles: Lead Vocals\n
EXTT9=Walter Settles: Lead Vocal\n
EXTT10=W.L. Richardson: Lead Vocal\n
PLAYORDER=
